<?xml version="1.0" encoding="UTF-8"?>
<svg width="32px" height="32px" viewBox="0 0 32 32" version="1.1" xmlns="http://www.w3.org/2000/svg" xmlns:xlink="http://www.w3.org/1999/xlink">
    <title>favicon</title>
    <g id="Page-1" stroke="none" stroke-width="1" fill="none" fill-rule="evenodd">
        <g id="favicon">
            <rect id="Rectangle" fill="#FFFFFF" x="0" y="0" width="32" height="32"></rect>
            <g id="logo/favicon" fill="#0082C3">
                <g id="favicon">
                    <path d="M0,0 L0,32 L32,32 L32,0 L0,0 Z M31.9041,11.3355 L26.7253,11.3395 L26.7253,14.0281 L31.2093,14.0247 L31.2093,17.5619 L26.7253,17.5659 L26.7253,20.5483 L31.9041,20.5483 L31.9041,24.1556 L22.4909,24.1556 L22.4909,17.5808 C22.2041,19.3868 21.4032,20.914 20.1056,22.1308 C18.259,23.8398 16.6286,24.1668 14.1958,24.1668 L7.701,24.1668 L7.701,7.7158 L13.6147,7.7158 C16.3643,7.7158 18.2827,8.0611 20.0855,9.6818 C21.3842,10.8448 22.2003,12.4263 22.4911,14.3638 L22.4911,7.7158 L31.9041,7.7158 L31.9041,11.3356 L31.9041,11.3355 Z" id="Shape"></path>
                    <path d="M13.6147,11.2533 L11.9355,11.2533 L11.9355,20.5535 L13.6355,20.5535 C16.8752,20.5535 18.4045,19.1223 18.4045,15.886 C18.4045,12.9233 16.7247,11.2533 13.6147,11.2533 Z" id="Path"></path>
                </g>
            </g>
        </g>
    </g>
</svg>